<?xml version="1.0" encoding="utf-8"?>
<!-- Generator: Adobe Illustrator 26.3.1, SVG Export Plug-In . SVG Version: 6.00 Build 0)  -->
<svg version="1.1" id="logo" xmlns="http://www.w3.org/2000/svg" xmlns:xlink="http://www.w3.org/1999/xlink" x="0px" y="0px"
	 viewBox="0 0 751.9 751.6" style="enable-background:new 0 0 751.9 751.6;" xml:space="preserve">
<style type="text/css">
	.st0{fill:#FF5E00;}
</style>
<path class="st0" d="M615,266.9h-84.1l-104-130l-80,80H247l-110,110l40.2,40.2L137.8,400l107,160.5l189.3,54.1l13.1-78.4l86.8-26.2
	L615,266.9z M561.8,363.1l-22.4-76.2h47.8L561.8,363.1z M429.5,520.7l-122.1,36.9l-47.6-136.1l-53-53l101-84.2l44.5-44.5l70.7,47.1
	h95.5l32.1,109.4L442.1,445L429.5,520.7z M505.3,266.9h-76.2l-62.3-41.6l58.5-58.5L505.3,266.9z M165.2,326.9l90-90H327l-32.6,32.6
	l-101.7,84.8L165.2,326.9z M164.4,403.9l27-22.5l51,51l41.4,118.5l-26.5-7.6L164.4,403.9z M418.1,589.2l-75.2-21.5l82.9-25.1
	L418.1,589.2z M450.9,514.2l9.2-55.4l82.1-36.7l-23.9,71.7L450.9,514.2z"/>
</svg>
