<?xml version="1.0" encoding="utf-8"?>
<!-- Generator: Adobe Illustrator 26.3.1, SVG Export Plug-In . SVG Version: 6.00 Build 0)  -->
<svg version="1.1" id="logo" xmlns="http://www.w3.org/2000/svg" xmlns:xlink="http://www.w3.org/1999/xlink" x="0px" y="0px"
	 viewBox="0 0 2013.1 751.6" style="enable-background:new 0 0 2013.1 751.6;" xml:space="preserve">
<style type="text/css">
	.st0{fill:#FFFFFF;}
</style>
<rect width="2013.1" height="751.6"/>
<path class="st0" d="M615,266.9h-84.1l-104-130l-80,80H247l-110,110l40.2,40.2L137.8,400l107,160.5l189.3,54.1l13.1-78.4l86.8-26.2
	L615,266.9z M561.8,363.1l-22.4-76.2h47.8L561.8,363.1z M429.5,520.7l-122.1,36.9l-47.6-136.1l-53-53l101-84.2l44.5-44.5l70.7,47.1
	h95.5l32.1,109.4L442.1,445L429.5,520.7z M505.3,266.9h-76.2l-62.3-41.6l58.5-58.5L505.3,266.9z M165.2,326.9l90-90H327l-32.6,32.6
	l-101.7,84.8L165.2,326.9z M164.4,403.9l27-22.5l51,51l41.4,118.5l-26.5-7.6L164.4,403.9z M418.1,589.2l-75.2-21.5l82.9-25.1
	L418.1,589.2z M450.9,514.2l9.2-55.4l82.1-36.7l-23.9,71.7L450.9,514.2z"/>
<g>
	<path class="st0" d="M701.1,368.1h23.3v19.1c9.5-14.6,24.6-22.3,41.3-22.3c21.2,0,36.8,10.1,44.8,26.2c9.3-16.7,26-26.2,45.6-26.2
		c31.3,0,50.6,21.7,50.6,52.5v84.5h-24.4v-80.8c0-19.1-10.6-33.9-32.1-33.9c-22.3,0-34.2,18.5-34.2,38.1v76.6h-24.4v-80.8
		c0-19.1-10.6-33.9-32.1-33.9c-22.3,0-34.2,18.5-34.2,38.1v76.6h-24.4V368.1z"/>
	<path class="st0" d="M981.4,505c-26,0-44.8-15.6-44.8-37.9c0-22,13.8-35.8,43.2-42.6l45.6-10.6v-1.9c0-15.6-11.7-26.5-30.5-26.5
		c-18,0-29.7,10.9-31.8,24.6h-23.3c2.4-24.6,24.1-45.3,55.4-45.3c35.8,0,54,21.2,54,50.1v86.9h-23v-19.1
		C1015.5,497.9,998.6,505,981.4,505z M1025.3,433.8l-39.5,9.3c-16.2,3.7-25.2,10.9-25.2,22c0,12.7,9.5,19.9,25.2,19.9
		c23.3,0,39.5-20.1,39.5-41.3V433.8z"/>
	<path class="st0" d="M1115.3,320.7v47.4h35v21.7h-35v68.9c0,16.2,4.5,24.9,21.7,24.9c7.4,0,13.2-2.4,19.6-6.6v21.7
		c-6.9,4-14.3,6.4-24.6,6.4c-31.5,0-41.1-19.3-41.1-44.8v-70.5h-22.5v-21.7h22.5v-41.6L1115.3,320.7z"/>
	<path class="st0" d="M1282.7,419.7c-5.8-18.8-22.5-32.3-43.7-32.3c-27,0-46.9,21.2-46.9,47.4c0,26.5,19.9,47.7,46.9,47.7
		c21.5,0,38.7-14.3,44.2-33.4h24.1c-6.6,31.8-33.1,55.9-68.3,55.9c-41.6,0-71.3-31.5-71.3-70.2c0-38.4,29.7-69.9,71.3-69.9
		c35,0,61.7,23.6,68.1,54.8H1282.7z"/>
	<path class="st0" d="M1335.1,305.6h24.4v80c9.8-13.5,24.9-20.7,41.6-20.7c31.8,0,51.4,21.7,51.4,52.5v84.5h-24.4v-80.8
		c0-19.1-10.6-33.9-33.1-33.9c-23,0-35.5,18.5-35.5,38.1v76.6h-24.4V305.6z"/>
	<path class="st0" d="M1518.5,325.4c0,8.7-6.6,16.7-17.2,16.7c-10.6,0-17.2-7.9-17.2-16.7c0-9,6.6-16.7,17.2-16.7
		C1511.9,308.8,1518.5,316.4,1518.5,325.4z M1489.1,368.1h24.4v133.8h-24.4V368.1z"/>
	<path class="st0" d="M1656.8,419.7c-5.8-18.8-22.5-32.3-43.7-32.3c-27,0-46.9,21.2-46.9,47.4c0,26.5,19.9,47.7,46.9,47.7
		c21.5,0,38.7-14.3,44.2-33.4h24.1c-6.6,31.8-33.1,55.9-68.3,55.9c-41.6,0-71.3-31.5-71.3-70.2c0-38.4,29.7-69.9,71.3-69.9
		c35,0,61.7,23.6,68.1,54.8H1656.8z"/>
	<path class="st0" d="M1746.5,505c-26,0-44.8-15.6-44.8-37.9c0-22,13.8-35.8,43.2-42.6l45.6-10.6v-1.9c0-15.6-11.7-26.5-30.5-26.5
		c-18,0-29.7,10.9-31.8,24.6h-23.3c2.4-24.6,24.1-45.3,55.4-45.3c35.8,0,54,21.2,54,50.1v86.9h-23v-19.1
		C1780.6,497.9,1763.7,505,1746.5,505z M1790.4,433.8l-39.5,9.3c-16.2,3.7-25.2,10.9-25.2,22c0,12.7,9.5,19.9,25.2,19.9
		c23.3,0,39.5-20.1,39.5-41.3V433.8z"/>
	<path class="st0" d="M1851.7,305.6h24.4v196.3h-24.4V305.6z"/>
</g>
</svg>
