<svg width="2014" height="752" viewBox="0 0 2014 752" fill="none" xmlns="http://www.w3.org/2000/svg">
<path d="M615 266.9H530.9L426.9 136.9L346.9 216.9H247L137 326.9L177.2 367.1L137.8 400L244.8 560.5L434.1 614.6L447.2 536.2L534 510L615 266.9ZM561.8 363.1L539.4 286.9H587.2L561.8 363.1ZM429.5 520.7L307.4 557.6L259.8 421.5L206.8 368.5L307.8 284.3L352.3 239.8L423 286.9H518.5L550.6 396.3L442.1 445L429.5 520.7ZM505.3 266.9H429.1L366.8 225.3L425.3 166.8L505.3 266.9ZM165.2 326.9L255.2 236.9H327L294.4 269.5L192.7 354.3L165.2 326.9ZM164.4 403.9L191.4 381.4L242.4 432.4L283.8 550.9L257.3 543.3L164.4 403.9ZM418.1 589.2L342.9 567.7L425.8 542.6L418.1 589.2ZM450.9 514.2L460.1 458.8L542.2 422.1L518.3 493.8L450.9 514.2Z" fill="#BDBDBD"/>
<path d="M701.1 368.1H724.4V387.2C733.9 372.6 749 364.9 765.7 364.9C786.9 364.9 802.5 375 810.5 391.1C819.8 374.4 836.5 364.9 856.1 364.9C887.4 364.9 906.7 386.6 906.7 417.4V501.9H882.3V421.1C882.3 402 871.7 387.2 850.2 387.2C827.9 387.2 816 405.7 816 425.3V501.9H791.6V421.1C791.6 402 781 387.2 759.5 387.2C737.2 387.2 725.3 405.7 725.3 425.3V501.9H700.9V368.1H701.1Z" fill="#666666"/>
<path d="M981.4 504.999C955.4 504.999 936.6 489.399 936.6 467.099C936.6 445.099 950.4 431.299 979.8 424.499L1025.4 413.899V411.999C1025.4 396.399 1013.7 385.499 994.9 385.499C976.9 385.499 965.2 396.399 963.1 410.099H939.8C942.2 385.499 963.9 364.799 995.2 364.799C1031 364.799 1049.2 385.999 1049.2 414.899V501.799H1026.2V482.699C1015.5 497.899 998.6 504.999 981.4 504.999ZM1025.3 433.799L985.8 443.099C969.6 446.799 960.6 453.999 960.6 465.099C960.6 477.799 970.1 484.999 985.8 484.999C1009.1 484.999 1025.3 464.899 1025.3 443.699V433.799Z" fill="#666666"/>
<path d="M1115.3 320.699V368.099H1150.3V389.799H1115.3V458.699C1115.3 474.899 1119.8 483.599 1137 483.599C1144.4 483.599 1150.2 481.199 1156.6 476.999V498.699C1149.7 502.699 1142.3 505.099 1132 505.099C1100.5 505.099 1090.9 485.799 1090.9 460.299V389.799H1068.4V368.099H1090.9V326.499L1115.3 320.699Z" fill="#666666"/>
<path d="M1282.7 419.7C1276.9 400.9 1260.2 387.4 1239 387.4C1212 387.4 1192.1 408.6 1192.1 434.8C1192.1 461.3 1212 482.5 1239 482.5C1260.5 482.5 1277.7 468.2 1283.2 449.1H1307.3C1300.7 480.9 1274.2 505 1239 505C1197.4 505 1167.7 473.5 1167.7 434.8C1167.7 396.4 1197.4 364.9 1239 364.9C1274 364.9 1300.7 388.5 1307.1 419.7H1282.7Z" fill="#666666"/>
<path d="M1335.1 305.6H1359.5V385.6C1369.3 372.1 1384.4 364.9 1401.1 364.9C1432.9 364.9 1452.5 386.6 1452.5 417.4V501.9H1428.1V421.1C1428.1 402 1417.5 387.2 1395 387.2C1372 387.2 1359.5 405.7 1359.5 425.3V501.9H1335.1V305.6Z" fill="#666666"/>
<path d="M1518.5 325.399C1518.5 334.099 1511.9 342.099 1501.3 342.099C1490.7 342.099 1484.1 334.199 1484.1 325.399C1484.1 316.399 1490.7 308.699 1501.3 308.699C1511.9 308.799 1518.5 316.399 1518.5 325.399ZM1489.1 368.099H1513.5V501.899H1489.1V368.099Z" fill="#666666"/>
<path d="M1656.8 419.7C1651 400.9 1634.3 387.4 1613.1 387.4C1586.1 387.4 1566.2 408.6 1566.2 434.8C1566.2 461.3 1586.1 482.5 1613.1 482.5C1634.6 482.5 1651.8 468.2 1657.3 449.1H1681.4C1674.8 480.9 1648.3 505 1613.1 505C1571.5 505 1541.8 473.5 1541.8 434.8C1541.8 396.4 1571.5 364.9 1613.1 364.9C1648.1 364.9 1674.8 388.5 1681.2 419.7H1656.8Z" fill="#666666"/>
<path d="M1746.5 504.999C1720.5 504.999 1701.7 489.399 1701.7 467.099C1701.7 445.099 1715.5 431.299 1744.9 424.499L1790.5 413.899V411.999C1790.5 396.399 1778.8 385.499 1760 385.499C1742 385.499 1730.3 396.399 1728.2 410.099H1704.9C1707.3 385.499 1729 364.799 1760.3 364.799C1796.1 364.799 1814.3 385.999 1814.3 414.899V501.799H1791.3V482.699C1780.6 497.899 1763.7 504.999 1746.5 504.999ZM1790.4 433.799L1750.9 443.099C1734.7 446.799 1725.7 453.999 1725.7 465.099C1725.7 477.799 1735.2 484.999 1750.9 484.999C1774.2 484.999 1790.4 464.899 1790.4 443.699V433.799Z" fill="#666666"/>
<path d="M1851.7 305.6H1876.1V501.9H1851.7V305.6Z" fill="#666666"/>
</svg>
